<?xml version="1.0" encoding="utf-8"?>

<!DOCTYPE svg PUBLIC "-//W3C//DTD SVG 1.1//EN" "http://www.w3.org/Graphics/SVG/1.1/DTD/svg11.dtd">
<!-- Uploaded to: SVG Repo, www.svgrepo.com, Generator: SVG Repo Mixer Tools -->
<svg version="1.1" id="_x32_" xmlns="http://www.w3.org/2000/svg" xmlns:xlink="http://www.w3.org/1999/xlink" 
	 viewBox="0 0 512 512"  xml:space="preserve">
<style type="text/css">
	.st0{fill:#000000;}
</style>
<g>
	<path class="st0" d="M448.18,159.195l-0.091-0.811l-0.759,0.318c-5.822,5.134-26.168,14.278-32.269,15.226l-0.383,0.201
		l0.019,0.428c2.226,5.763,4.478,27.953,2.947,35.56l0.104,0.818l0.746-0.325c5.822-5.133,26.162-14.278,32.275-15.226l0.377-0.201
		l-0.013-0.428C448.894,188.991,446.643,166.802,448.18,159.195z"/>
	<rect x="36.552" y="352.646" class="st0" width="48.182" height="48.182"/>
	<rect x="132.917" y="352.646" class="st0" width="48.183" height="48.182"/>
	<rect x="229.282" y="352.646" class="st0" width="48.182" height="48.182"/>
	<rect x="36.552" y="256.281" class="st0" width="48.182" height="48.182"/>
	<rect x="132.917" y="256.281" class="st0" width="48.183" height="48.182"/>
	<rect x="229.282" y="256.281" class="st0" width="48.182" height="48.182"/>
	<rect x="84.735" y="304.463" class="st0" width="48.182" height="48.183"/>
	<rect x="181.1" y="304.463" class="st0" width="48.182" height="48.183"/>
	<rect x="36.552" y="159.916" class="st0" width="48.182" height="48.183"/>
	<rect x="132.917" y="159.916" class="st0" width="48.183" height="48.183"/>
	<rect x="229.282" y="159.916" class="st0" width="48.182" height="48.183"/>
	<rect x="84.735" y="208.098" class="st0" width="48.182" height="48.182"/>
	<rect x="181.1" y="208.098" class="st0" width="48.182" height="48.182"/>
	<rect x="36.552" y="63.551" class="st0" width="48.182" height="48.182"/>
	<rect x="132.917" y="63.551" class="st0" width="48.183" height="48.182"/>
	<rect x="229.282" y="63.551" class="st0" width="48.182" height="48.182"/>
	<rect x="84.735" y="111.733" class="st0" width="48.182" height="48.182"/>
	<rect x="181.1" y="111.733" class="st0" width="48.182" height="48.182"/>
	<path class="st0" d="M493.456,136.72L283.78,18.094c-15.816-8.905-35.488-4.855-46.391,8.904H36.552
		C16.355,27.005,0,43.36,0,63.551v337.278c0,20.191,16.355,36.546,36.552,36.552h154.983l99.818,56.49
		c17.614,9.969,39.875,3.79,49.844-13.759L507.28,186.564C517.183,168.957,510.998,146.689,493.456,136.72z M156.243,417.443H36.552
		c-9.178-0.02-16.602-7.444-16.615-16.615V63.551c0.013-9.171,7.437-16.596,16.615-16.615h188.94h22.864h29.108
		c9.164,0.019,16.602,7.444,16.615,16.615v130.256v114.447v92.575c-0.013,9.171-7.451,16.595-16.615,16.615h-80.678H156.243z
		 M489.931,176.732L323.784,470.279c-4.517,7.976-14.622,10.767-22.592,6.243l-69.184-39.141h45.456
		c20.184-0.007,36.539-16.362,36.552-36.552v-89.784v-24.812c12.721-5.555,24.526-9.826,30.503-10.793l0.863-0.461l-0.064-0.999
		c-5.115-13.357-10.365-64.862-6.847-82.606c0.201-1,0.266-1.596-0.195-1.863c-0.467-0.266-0.934,0.065-1.733,0.734
		c-4.523,3.992-12.889,9.073-22.527,14.103V192.08V63.551c0-1.953-0.202-3.862-0.493-5.738l0.026,0.019l170.066,96.236
		C491.593,158.585,494.383,168.756,489.931,176.732z"/>
</g>
</svg>