<?xml version="1.0" encoding="utf-8"?>

<!DOCTYPE svg PUBLIC "-//W3C//DTD SVG 1.1//EN" "http://www.w3.org/Graphics/SVG/1.1/DTD/svg11.dtd">
<!-- Uploaded to: SVG Repo, www.svgrepo.com, Generator: SVG Repo Mixer Tools -->
<svg height="800px" width="800px" version="1.1" id="_x32_" xmlns="http://www.w3.org/2000/svg" xmlns:xlink="http://www.w3.org/1999/xlink" 
	 viewBox="0 0 512 512"  xml:space="preserve">
<style type="text/css">
	.st0{fill:#000000;}
</style>
<g>
	<path class="st0" d="M474.658,121.941L304.895,60.196v18.563l163.782,59.6c1.885,0.67,3.493,1.608,4.98,2.823
		c0.734,0.536,1.474,1.207,2.082,1.877c4.504,4.783,6.187,11.911,3.837,18.571L362.74,482.528
		c-3.427,9.408-13.859,14.257-23.271,10.824L132.982,418.22c-3.095-1.14-5.717-3.024-7.669-5.445h-19.774
		c3.363,9.818,10.961,18.027,21.453,21.863l206.488,75.19c13.118,4.775,27.107,1.416,36.594-7.531
		c1.345-1.214,2.554-2.556,3.695-4.038c2.224-2.89,4.108-6.123,5.382-9.75l116.831-320.898
		C502.708,149.115,493.158,128.668,474.658,121.941z"/>
	<path class="st0" d="M307.855,319.014c7.062,3.963,15.673,5.118,23.14,2.354c11.636-4.44,17.282-14.668,18.496-26.362
		c0.54-5.52,0.134-11.367-1.14-17.088c-0.342-1.751-0.808-3.561-1.348-5.311c-1.55-4.849-3.434-9.893-5.516-15.002
		c-3.568-9.073-7.665-18.228-10.831-26.429c-2.354-6.258-4.168-11.912-4.842-16.545c-0.067-0.603-0.13-1.214-0.204-1.75
		c0-0.134,0-0.268-0.063-0.402c-0.067-0.611-0.272-0.812-0.403-0.879c-0.204-0.126-0.473-0.067-0.946,0.402
		c-0.067,0.075-0.131,0.134-0.268,0.268c-0.272,0.269-0.54,0.537-0.876,0.812c-3.494,3.292-8.674,6.592-14.726,9.952
		c-1.143,0.671-2.284,1.274-3.434,1.884v92.279c0.808,0.544,1.616,1.08,2.488,1.616C307.52,318.879,307.726,318.946,307.855,319.014
		z"/>
	<path class="st0" d="M422.98,209.11c0.008-4.947,1.129-10.429,2.79-15.956c2.287,4.581,8.332,7.076,13.085,5.282
		c7.11-2.674,8.309-11.159,6.038-18.407c-2.47-7.896-7.658-17.364-8.067-22.586l-0.19-0.499l-0.458,0.261
		c-3.672,3.739-13.721,7.658-20.705,12.12c-6.394,4.089-10.928,11.367-7.199,17.974c2.492,4.432,8.72,6.407,13.412,4.366
		c-2.272,5.304-4.939,10.227-8.123,14.019L422.98,209.11z"/>
	<path class="st0" d="M304.88,377.116v-53.41c0.004,0.008,0.012,0.015,0.015,0.015v-6.526c-0.004,0-0.011-0.008-0.015-0.014v-98.127
		c0.004,0.008,0.012,0.008,0.015,0.014v-7.33c-0.004,0-0.011,0.008-0.011,0.008L304.88,35.636
		C304.868,15.948,288.935,0.008,269.243,0H49.504c-19.691,0-35.64,15.956-35.64,35.636v341.48c0,19.68,15.948,35.629,35.64,35.636
		h219.74C288.935,412.745,304.868,396.804,304.88,377.116z M31.35,377.116V35.636c0.027-10.027,8.131-18.131,18.154-18.153h219.74
		c10.023,0.022,18.128,8.134,18.153,18.153v341.48c-0.026,10.018-8.13,18.13-18.153,18.146H49.504
		C39.481,395.247,31.377,387.142,31.35,377.116z"/>
	<path class="st0" d="M189.632,186.383c-1.747,0-3.441,0.141-5.11,0.417c4.06-5.311,6.477-11.941,6.477-19.137
		c0-17.424-14.186-31.614-31.618-31.614c-17.434,0-31.621,14.19-31.621,31.614c0,7.196,2.418,13.826,6.477,19.137
		c-1.668-0.276-3.378-0.417-5.11-0.417c-17.446,0-31.621,14.19-31.621,31.614c0,17.439,14.176,31.629,31.621,31.629
		c9.747,0,18.47-4.44,24.262-11.397c-0.983,13.907-3.151,27.174-7.263,38.466h26.496c-4.1-11.292-6.268-24.559-7.266-38.466
		c5.806,6.957,14.529,11.397,24.276,11.397c17.435,0,31.61-14.19,31.61-31.629C221.242,200.573,207.066,186.383,189.632,186.383z"/>
	<path class="st0" d="M254.647,339.588c-0.749,0-1.471,0.06-2.183,0.171c1.736-2.279,2.787-5.132,2.787-8.231
		c0-7.501-6.108-13.616-13.61-13.616c-7.513,0-13.621,6.115-13.621,13.616c0,3.099,1.05,5.952,2.783,8.231
		c-0.708-0.112-1.446-0.171-2.194-0.171c-7.512,0-13.61,6.108-13.61,13.602c0,7.516,6.097,13.616,13.61,13.616
		c4.19,0,7.948-1.914,10.443-4.902c-0.42,5.99-1.367,11.688-3.124,16.567h11.415c-1.773-4.879-2.707-10.578-3.14-16.567
		c2.51,2.987,6.265,4.902,10.444,4.902c7.512,0,13.609-6.1,13.609-13.616C268.256,345.696,262.159,339.588,254.647,339.588z"/>
	<path class="st0" d="M103.759,77.738c0-7.501-6.108-13.602-13.624-13.602c-0.734,0-1.472,0.06-2.194,0.164
		c1.747-2.272,2.786-5.132,2.786-8.231c0-7.494-6.097-13.61-13.594-13.61c-7.516,0-13.624,6.116-13.624,13.61
		c0,3.099,1.039,5.96,2.786,8.231c-0.712-0.104-1.446-0.164-2.194-0.164c-7.501,0-13.61,6.101-13.61,13.602
		c0,7.509,6.108,13.617,13.61,13.617c4.19,0,7.948-1.922,10.444-4.909c-0.436,5.989-1.367,11.688-3.128,16.567H82.82
		c-1.762-4.879-2.692-10.578-3.129-16.567c2.496,2.987,6.254,4.909,10.444,4.909C97.65,91.356,103.759,85.247,103.759,77.738z"/>
</g>
</svg>