<?xml version="1.0" encoding="utf-8"?>

<!DOCTYPE svg PUBLIC "-//W3C//DTD SVG 1.1//EN" "http://www.w3.org/Graphics/SVG/1.1/DTD/svg11.dtd">
<!-- Uploaded to: SVG Repo, www.svgrepo.com, Generator: SVG Repo Mixer Tools -->
<svg version="1.1" id="_x32_" xmlns="http://www.w3.org/2000/svg" xmlns:xlink="http://www.w3.org/1999/xlink" 
	 width="800px" height="800px" viewBox="0 0 512 512"  xml:space="preserve">
<style type="text/css">
<![CDATA[
	.st0{fill:#000000;}
]]>
</style>
<g>
	<path class="st0" d="M305.344,298.063c-2.75,5.172-6.531,9.484-11.344,13.016c-4.797,3.516-10.563,6.141-17.266,7.875
		c-2.922,0.734-5.984,1.25-9.109,1.672v19.5h-23.25v-19.109c-6.641-0.563-12.969-1.594-18.938-3.234
		c-9.125-2.5-21.031-12.563-21.031-12.563c-1.031-0.594-1.703-1.641-1.844-2.813c-0.156-1.156,0.25-2.344,1.063-3.188l11.672-11.656
		c1.266-1.25,3.203-1.484,4.734-0.563c0,0,8.719,7.578,15.328,9.391c6.609,1.797,13.172,2.703,19.734,2.703
		c8.25,0,15.063-1.453,20.484-4.375c5.422-2.938,8.109-7.469,8.109-13.688c0-4.453-1.313-7.984-4-10.578
		c-2.656-2.563-7.156-4.172-13.531-4.875l-20.875-1.797c-12.375-1.219-21.906-4.656-28.625-10.313
		c-6.719-5.688-10.047-14.281-10.047-25.797c0-6.359,1.281-12.031,3.859-17.016c2.594-4.984,6.109-9.188,10.578-12.625
		c4.469-3.422,9.672-6.016,15.609-7.734c2.469-0.703,5.063-1.188,7.719-1.609v-16.813h23.25v16.469
		c5.438,0.531,10.609,1.406,15.422,2.734c8.172,2.219,16.734,8.922,16.734,8.922c1.078,0.563,1.813,1.609,2,2.797
		c0.188,1.219-0.219,2.406-1.063,3.281l-10.938,11.109c-1.156,1.172-2.969,1.469-4.469,0.703c0,0-6.469-4.609-12.063-6.063
		s-11.469-2.203-17.656-2.203c-8.063,0-14.063,1.563-17.906,4.641c-3.875,3.109-5.813,7.141-5.813,12.109
		c0,4.484,1.375,7.922,4.125,10.313c2.75,2.422,7.391,3.984,13.922,4.641l18.297,1.563c13.594,1.203,23.859,4.813,30.813,10.813
		C306,259.734,309.469,268.5,309.469,280C309.469,286.891,308.094,292.906,305.344,298.063z"/>
	<path class="st0" d="M256,0C114.625,0,0,114.609,0,256c0,141.375,114.625,256,256,256c141.391,0,256-114.625,256-256
		C512,114.609,397.391,0,256,0z M485.594,256c0,31.422-6.344,61.391-17.828,88.688l-44.016-18.234
		c9.125-21.688,14.188-45.484,14.188-70.453c0-0.328-0.016-0.656-0.016-0.984h47.656C485.578,255.344,485.594,255.672,485.594,256z
		 M256,421.953C164.5,421.953,90.063,347.5,90.063,256S164.5,90.063,256,90.063S421.938,164.5,421.938,256
		S347.5,421.953,256,421.953z M26.406,256c0-31.422,6.344-61.391,17.844-88.703l44.016,18.25
		C79.125,207.234,74.063,231.031,74.063,256c0,0.328,0.016,0.641,0.016,0.969l-47.656,0.016
		C26.422,256.656,26.406,256.328,26.406,256z M468.344,168.766L424.313,187c-9.344-22.703-23.125-43.109-40.297-60.125
		l33.688-33.688C439.266,114.594,456.578,140.25,468.344,168.766z M344.688,44.234l-18.25,44.031
		C304.766,79.125,280.969,74.063,256,74.063c-0.328,0-0.656,0.016-0.969,0.016V26.422c0.313,0,0.641-0.016,0.969-0.016
		C287.422,26.406,317.375,32.766,344.688,44.234z M168.766,43.656L187,87.688c-22.688,9.344-43.109,23.125-60.125,40.297
		L93.188,94.297C114.594,72.734,140.25,55.422,168.766,43.656z M43.656,343.219L87.688,325
		c9.344,22.688,23.125,43.109,40.281,60.125l-33.688,33.688C72.719,397.406,55.406,371.75,43.656,343.219z M167.297,467.766
		l18.234-44.031c21.688,9.156,45.5,14.219,70.469,14.219c0.328,0,0.656-0.031,0.969-0.031v47.656c-0.313,0-0.641,0.031-0.969,0.031
		C224.563,485.609,194.594,479.25,167.297,467.766z M343.234,468.344L325,424.313c22.688-9.344,43.109-23.125,60.125-40.281
		l33.688,33.688C397.406,439.266,371.75,456.578,343.234,468.344z"/>
	<path class="st0" d="M137.141,297.609c-0.859-2.625-3.266-4.281-5.859-4.281c-0.625,0-1.266,0.094-1.891,0.297
		c-3.234,1.031-5.016,4.5-3.984,7.734c0.5,1.547,1.031,3.078,1.609,4.625l0.016,0.031l0.063,0.172v0.016v0.047l0,0l0.031,0.016
		v0.016l0.063,0.156v0.031h0.031v0.031v0.016l0.016,0.031l0,0v0.047l0.031,0.109l0.016,0.016l0,0l0.016,0.016l0.016,0.031v0.031
		v0.016l0.016,0.016l0.016,0.016v0.016l0.031,0.047v0.016l0.016,0.031l0.016,0.016v0.016v0.031v0.031h0.031v0.031v0.031v0.016
		l0.016,0.031v0.016l0.016,0.031v0.016l0.031,0.031v0.016v0.016l0.016,0.031l0.016,0.031l0,0l0.016,0.031l0.016,0.016l0.031,0.078
		v0.016v0.047l0,0v0.031l0.031,0.016v0.031v0.016l0.016,0.031h0.016l0.031,0.094l0,0l0.031,0.031v0.016l0.016,0.031l0,0l0.016,0.047
		l0,0l0.063,0.219v0.016c2.156,5.422,4.75,10.656,7.719,15.625c1.141,1.922,3.188,3,5.281,3c1.078,0,2.156-0.281,3.156-0.875
		c2.922-1.766,3.875-5.516,2.125-8.422C142.375,311.156,139.344,304.516,137.141,297.609z"/>
	<path class="st0" d="M179.422,156.109c2.734-1.984,3.344-5.844,1.359-8.578c-1.203-1.672-3.063-2.563-4.969-2.563
		c-1.25,0-2.531,0.375-3.625,1.172l0,0l-0.031,0.016l-0.016,0.016l-0.016,0.016l-0.016,0.016l-0.016,0.016l-0.031,0.031h-0.031
		l-0.016,0.031H172l-0.016,0.031h-0.016l-0.031,0.016l0,0l-0.016,0.016h-0.016l-0.094,0.063l-0.031,0.031v0.031h-0.031l-0.016,0.016
		l-0.016,0.016h-0.016c-6.453,4.75-12.391,10.203-17.641,16.234c-2.234,2.563-1.953,6.453,0.609,8.672
		c1.156,1.016,2.609,1.516,4.031,1.516c1.734,0,3.422-0.703,4.641-2.109C168.125,165.313,173.531,160.375,179.422,156.109z"/>
	<path class="st0" d="M203.031,370.297c-6.641-2.922-12.984-6.578-18.844-10.922c-1.094-0.797-2.375-1.188-3.656-1.188
		c-1.875,0-3.734,0.875-4.938,2.5c-2.047,2.734-1.438,6.594,1.297,8.578c4.016,3,8.266,5.703,12.703,8.094l0.031,0.016l0,0
		l0.031,0.031l0.125,0.063v0.031h0.031l0,0l0.063,0.016l0,0l0.141,0.063h0.016l0.016,0.031l0,0l0.016,0.031h0.016l0.016,0.016l0,0
		l0.125,0.047l0,0h0.031l0.031,0.016l0.031,0.016h0.016l0.047,0.031l0,0v0.031l0,0l0.063,0.047l0,0l0.047,0.016h0.016h0.047
		l0.016,0.016l0.031,0.016h0.016l0.109,0.063l0.031,0.016h0.031V378l0,0v0.016l0,0h0.031l0.031,0.016l0.094,0.047l0.031,0.016
		l0.031,0.016l0.016,0.016h0.016h0.031v0.031h0.016h0.016v0.031h0.031l0,0h0.047l0.016,0.031h0.031l0.031,0.031h0.031h0.016
		l0.047,0.031l0,0l0.031,0.016v0.016l0.031,0.016h0.031v0.016h0.031l0,0l0.031,0.016l0.031,0.016l0,0l0.031,0.016l0.016,0.016
		l0.047,0.031h0.016l0.016,0.031h0.031l0.016,0.016h0.016l0.031,0.016v0.016h0.031h0.016h0.031l0.016,0.016l0.031,0.016l0.031,0.031
		l0,0l0.031,0.016v0.016l0.031,0.016l0.031,0.016l0.031,0.016l0,0h0.031l0.031,0.016l0.031,0.016l0,0l0.031,0.016h0.031v0.016
		l0.031,0.016l0.031,0.016l0,0l0.031,0.031l0,0l0.031,0.016l0.031,0.016l0.031,0.016l0,0l0.031,0.016h0.031l0.016,0.016l0.016,0.016
		h0.031l0,0h0.031l0.016,0.031l0.078,0.031l0.016,0.031h0.016h0.031l0.016,0.031h0.016h0.031l0.016,0.016l0.016,0.016h0.031
		l0.031,0.016h0.031v0.016l0.031,0.016l0.031,0.016v0.016h0.031v0.016l0.031,0.016h0.031l0.047,0.031l0.016,0.016h0.031l0.016,0.031
		h0.016h0.031l0.016,0.016h0.016l0.031,0.016l0.094,0.063l0,0l0.031,0.016h0.016h0.016v0.016l0.031,0.016l0.031,0.016l0,0h0.031
		l0.031,0.031h0.016l0.047,0.016l0,0h0.031v0.016l0.031,0.016l0.031,0.016l0.031,0.016l0,0l0.031,0.016v0.016l0.047,0.016h0.016
		l0.031,0.016v0.016h0.031h0.031v0.031h0.031h0.031l0.016,0.016l0.016,0.016h0.016l0.047,0.031h0.016h0.016l0.031,0.031l0,0
		l0.031,0.016l0.016,0.016h0.016h0.031l0.031,0.031l0,0l0.031,0.016l0.031,0.016h0.031l0,0l0.031,0.031h0.031l0,0l0.031,0.016
		l0.031,0.016v0.016l0.031,0.016l0.031,0.016l0.031,0.016h0.016h0.016l0.031,0.016v0.016l0.031,0.016l0.016,0.016h0.031h0.016h0.016
		l0.047,0.031h0.031l0,0l0.031,0.016l0.016,0.016l0.031,0.016l0,0l0.016,0.016l0.031,0.016l0.031,0.016l0,0H195l0.031,0.031h0.016
		l0.016,0.016l0.031,0.016h0.031l0.016,0.031h0.016h0.031l0,0l0.031,0.016h0.031l0.031,0.016l0.031,0.016v0.016l0.016,0.016h0.016
		l0.031,0.016h0.031l0.016,0.031h0.016h0.031l0.016,0.016l0.047,0.031l0,0l0.031,0.016h0.016h0.016h0.031l0.016,0.031h0.016h0.031
		l0.016,0.031l0.078,0.031l0,0l0.031,0.016l0.016,0.016l0.031,0.016h0.016l0.031,0.016h0.016l0.031,0.031l0,0l0.047,0.016l0,0
		l0.047,0.016l0,0h0.047v0.016l0.031,0.016h0.016l0.031,0.016l0,0l0.047,0.031l0,0l0.094,0.047l0,0h0.047v0.016l0.031,0.016h0.016
		l0.156,0.078h0.016l0.047,0.016l0,0l0.031,0.016l0,0l0.094,0.047l0,0l0.047,0.031l0.047,0.016l0,0l0.031,0.016v0.016l0.047,0.016
		l0.172,0.063h0.031l1.031,0.453c0.813,0.359,1.625,0.547,2.453,0.547c2.375,0,4.641-1.422,5.656-3.734
		C207.625,375.219,206.156,371.609,203.031,370.297z"/>
	<path class="st0" d="M387.063,266.141c-3.125,0-5.797,2.359-6.094,5.547c-0.719,7.234-2.25,14.375-4.563,21.234
		c-1.094,3.234,0.625,6.719,3.844,7.797c0.656,0.25,1.313,0.344,1.969,0.344c2.625,0,4.969-1.625,5.844-4.188l0,0v-0.031
		l0.016-0.031l0,0l0.016-0.016v-0.016l0.016-0.047v-0.016l0.016-0.031l0,0l0.016-0.063h0.016v-0.031v-0.031h0.016v-0.031
		l0.016-0.016V296.5v-0.031l0.016-0.031l0.016-0.016v-0.016l0.031-0.094v-0.016l0.016-0.016l0,0l0.016-0.031v-0.031v-0.016v-0.016
		l0.031-0.031l0,0v-0.031v-0.031l0.031-0.094v-0.016l0.031-0.016v-0.016v-0.016v-0.031h0.016l0.016-0.031v-0.031v-0.031v-0.016
		l0.016-0.031h0.016v-0.047l0,0l0.031-0.031v-0.031v-0.016v-0.031v-0.016l0.031-0.016v-0.016v-0.031V295.5l0.031-0.031l0,0v-0.031
		l0.031-0.031l0,0v-0.063l0,0v-0.031l0.016-0.016l0.016-0.031v-0.016v-0.016l0.016-0.031l0.016-0.016l0,0v-0.031v-0.031l0.031-0.047
		l0,0v-0.047v-0.016l0.031-0.031v-0.016l0,0v-0.031l0.031-0.031l0,0v-0.047v-0.016v-0.031l0.031-0.078l0.016-0.016l0.016-0.031l0,0
		l0.016-0.063l0,0v-0.047l0,0l0.016-0.047l0.063-0.125v-0.031v-0.031l0,0v-0.031v-0.016l0.031-0.016v-0.016v-0.047l0.063-0.141l0,0
		v-0.031v-0.016l0.016-0.031v-0.016l0.016-0.031v-0.016l0.016-0.031l0,0l0.047-0.156l0,0v-0.047l0,0l0.016-0.031v-0.016l0.016-0.031
		l0,0l0.063-0.156v-0.031v-0.031v-0.016l0.031-0.031l0,0l0.078-0.297l0.016-0.063l0.078-0.234l0.016-0.047l0.063-0.234v-0.047l0,0
		l0.031-0.063c1.813-6.281,3.094-12.797,3.75-19.516c0.313-3.359-2.156-6.375-5.547-6.703L387.063,266.141z"/>
	<path class="st0" d="M124.813,246.922c3.156,0,5.844-2.406,6.125-5.609c0.625-7.25,2.125-14.406,4.375-21.281
		c1.063-3.219-0.688-6.719-3.922-7.75c-0.641-0.234-1.297-0.313-1.922-0.313c-2.563,0-4.969,1.625-5.844,4.188
		c-0.703,2.125-1.328,4.297-1.906,6.469v0.047l0,0l-0.031,0.047v0.047l0,0l-0.031,0.141l0,0v0.031l-0.016,0.031L121.625,223v0.016
		v0.016l-0.016,0.016l-0.016,0.031v0.016v0.031v0.016l-0.016,0.031v0.031l-0.016,0.016v0.016v0.031v0.016l-0.016,0.016v0.031v0.016
		l-0.016,0.031v0.031v0.016v0.016l-0.016,0.031l-0.016,0.016v0.047l0,0l-0.031,0.047l0,0v0.047l0,0v0.031l-0.016,0.031h-0.016v0.031
		v0.047l0,0l-0.031,0.125v0.016l-0.016,0.031v0.016l-0.016,0.031l-0.016,0.047c-0.781,3.203-1.422,6.453-1.922,9.75v0.031v0.016
		v0.016l-0.016,0.031v0.016l-0.016,0.031v0.016v0.094v0.016v0.031l-0.031,0.016v0.031v0.016v0.031v0.016v0.031v0.016v0.016v0.031
		l-0.031,0.031v0.031v0.031v0.016v0.031v0.016v0.031v0.016v0.016v0.031l0,0v0.031l-0.031,0.031v0.031v0.016v0.109l0,0v0.031v0.016
		l-0.031,0.031v0.016v0.031l0,0v0.031v0.016l-0.031,0.203c-0.234,1.688-0.406,3.391-0.563,5.109
		c-0.313,3.391,2.188,6.359,5.563,6.656L124.813,246.922z"/>
	<path class="st0" d="M381.063,219.656c0.594,0,1.219-0.078,1.844-0.281c3.219-1.016,5.047-4.453,4.031-7.703
		c-2.453-7.891-5.813-15.422-9.953-22.453c-1.125-1.938-3.172-3.031-5.297-3.031c-1.063,0-2.125,0.281-3.094,0.859
		c-2.938,1.703-3.906,5.484-2.203,8.422c3.703,6.266,6.641,12.953,8.797,19.875C376,217.969,378.438,219.656,381.063,219.656z"/>
	<path class="st0" d="M352.594,339.875c-1.719,0-3.406,0.672-4.625,2.063c-4.844,5.453-10.281,10.344-16.188,14.578
		c-2.75,1.969-3.406,5.828-1.422,8.594c1.188,1.672,3.078,2.547,5,2.547c1.234,0,2.484-0.344,3.563-1.109
		c5.188-3.688,9.984-7.813,14.406-12.313l0,0l0.172-0.203l0,0l0.016-0.016h0.016h0.031l0,0l0.078-0.063v-0.016l0.016-0.016
		l0.031-0.016v-0.031l0.016-0.016l0.016-0.031l0,0l0.094-0.109l0,0l0.031-0.031v-0.016l0.016-0.016l0.016-0.016l0.016-0.031
		l0.016-0.016v-0.031h0.031l0.031-0.016h0.016H354h0.031v-0.016V353.5h0.031l0.016-0.031l0.016-0.031l0,0l0.031-0.031l0.016-0.031
		l0.016-0.031h0.031v-0.016l0.031-0.016l0,0l0.031-0.016v-0.016h0.031v-0.016l0.031-0.016v-0.016l0.031-0.047l0,0l0.031-0.031
		l0.016-0.016l0.031-0.031v-0.016l0.016-0.031h0.016l0.078-0.125l0.047-0.031l0,0l0.047-0.031c0.859-0.875,1.719-1.828,2.563-2.781
		c2.25-2.547,2-6.422-0.531-8.688C355.469,340.375,354.031,339.875,352.594,339.875z"/>
	<path class="st0" d="M281.438,379.469l-1.344,0.172c-6.813,1.5-13.844,2.281-20.875,2.281l-0.766-0.016h-0.016
		c-3.391,0-6.156,2.75-6.188,6.125c-0.031,3.406,2.688,6.156,6.063,6.188h0.031l0,0h0.234l0,0h0.047h0.016h0.016h0.219h0.156l0,0
		h0.031h0.031h0.031h0.031l0,0h0.063h0.031h0.031h0.031l0,0h0.031h0.031h0.031h0.016h0.016h0.016h0.047l0,0h0.047h0.016h0.016h0.016
		h0.031h0.031h0.016h0.016h0.094h0.047h0.016h0.031l0,0h0.047h0.016h0.031h0.016h0.031h0.016h0.031l0,0h0.047h0.016h0.031h0.016
		h0.016h0.031h0.016h0.016h0.047h0.016h0.047h0.016h0.016h0.016h0.031h0.031h0.031h0.016h0.016h0.031l0,0h0.031h0.031h0.016h0.031
		h0.016h0.031h0.016h0.016h0.016h0.047l0,0h0.063h0.016h0.016h0.031h0.031l0,0l0.031-0.031h0.031h0.031h0.016h0.016h0.016h0.031
		h0.016h0.031h0.031h0.031l0,0h0.031l0,0h0.156h0.031h0.016h0.047l0,0h0.063l0,0h0.031l0,0h0.031h0.031h0.031l0,0h0.047h0.016h0.016
		h0.016h0.047l0,0h0.203l0,0h0.031l0,0h0.031h0.031h0.031h0.016h0.031h0.016h0.031l0,0h0.031h0.031h0.031l0,0h0.063l0,0l0.125-0.031
		h0.016h0.031h0.016h0.031l0,0h0.063l0,0h0.031l0,0h0.047h0.016h0.031l0,0h0.031h0.031h0.031l0,0h0.188h0.016h0.047h0.031
		l0.047-0.016h0.016h0.031l0,0h0.047h0.391l0,0h0.031l0,0h0.063l0,0l0.031-0.016h0.063c5.844-0.25,11.625-0.969,17.234-2.156h0.016
		h0.031l0,0h0.031h0.016h0.031h0.016l0.031-0.031l0,0h0.031h0.031l0.031-0.031l0,0h0.047l0,0h0.047l0,0h0.047h0.016l0.031-0.016l0,0
		h0.031l0.031-0.016h0.016l0.016-0.016h0.031l0,0h0.031h0.016h0.031l0.016-0.016h0.031l0.016-0.016h0.016h0.031l0.031-0.016
		l0.156-0.031h0.016l0.047-0.031l0,0h0.031h0.016h0.016h0.031h0.031l0,0l0.031-0.031l0,0l0.438-0.094
		c3.297-0.734,5.375-4,4.641-7.313C286.781,381.438,284.25,379.469,281.438,379.469z"/>
	<path class="st0" d="M332.313,154.438c1.875,0,3.719-0.844,4.906-2.484c2.078-2.703,1.5-6.563-1.219-8.594
		c-0.781-0.609-1.578-1.172-2.375-1.781l-0.047-0.016l0,0l-0.031-0.016l0,0l-0.109-0.078h-0.016l-0.047-0.031l0,0l-0.031-0.016
		v-0.016l-0.125-0.063v-0.016l-0.031-0.016l0,0l-0.031-0.031h-0.016l-0.031-0.031l0,0l-0.047-0.031l-0.031-0.016L333,141.188
		l-0.016-0.031h-0.031l-0.016-0.016l-0.031-0.016v-0.016l-0.031-0.016v-0.016l-0.031-0.016l-0.016-0.016l-0.031-0.016l-0.016-0.016
		L332.75,141l0,0l-0.031-0.031h-0.016l-0.016-0.031h-0.016l-0.031-0.016l-0.016-0.016l-0.031-0.031l0,0l-0.031-0.016l-0.016-0.016
		l-0.016-0.016H332.5l-0.031-0.016v-0.016h-0.016l-0.016-0.016v-0.016l-0.063-0.031l0,0l-0.031-0.016h-0.016l-0.016-0.016h-0.031
		v-0.031h-0.031l-0.016-0.016h-0.016l-0.031-0.031l0,0l-0.063-0.031v-0.031h-0.031v-0.016l-0.031-0.016v-0.016l-0.031-0.016l0,0
		l-0.172-0.109l-0.016-0.016h-0.016l-0.016-0.031h-0.031l-0.109-0.094l0,0l-0.047-0.016l0,0l-0.031-0.031l0,0l-0.219-0.125
		c-5.203-3.516-10.75-6.578-16.531-9.141c-0.813-0.359-1.672-0.531-2.5-0.531c-2.375,0-4.609,1.375-5.625,3.672
		c-1.391,3.109,0.031,6.734,3.141,8.141c6.641,2.906,12.953,6.594,18.766,10.969C329.734,154.031,331.031,154.438,332.313,154.438z"
		/>
	<path class="st0" d="M254.313,130.125h0.063c3.375,0,6.156-2.719,6.203-6.094c0.047-3.359-2.625-6.125-5.953-6.188l-1.438-0.016
		l0,0h-0.047h-0.016h-0.031h-0.016h-0.016h-0.031H253h-0.031h-0.031h-0.031h-0.016h-0.031h-0.016h-0.063h-0.109h-0.016h-0.031
		h-0.031l0,0h-0.031h-0.031H252.5h-0.016h-0.016h-0.031h-0.031h-0.031h-0.031l0,0h-0.047h-0.016h-0.031h-0.016h-0.031h-0.016h-0.031
		l0,0h-0.031h-0.031h-0.031l0,0H252l0,0h-0.031h-0.031h-0.031h-0.016h-0.047l0,0h-0.031l0,0h-0.031h-0.031h-0.031h-0.031h-0.016
		h-0.016h-0.031h-0.031h-0.031l0,0h-0.047H251.5h-0.031h-0.016h-0.016h-0.031h-0.031h-0.016h-0.031l-0.016,0.016h-0.031h-0.016
		h-0.016h-0.063h-0.016h-0.016h-0.031h-0.031l0,0h-0.031h-0.031h-0.016H251h-0.031h-0.031h-0.016h-0.031h-0.016h-0.031h-0.031
		h-0.031h-0.031h-0.031l0,0h-0.031l0,0h-0.031h-0.031h-0.031h-0.031l0,0h-0.031h-0.016h-0.078l0,0h-0.031h-0.031l0,0h-0.031l0,0
		h-0.031h-0.031h-0.031h-0.016h-0.016h-0.031h-0.031h-0.016h-0.047l0,0h-0.031h-0.031H250h-0.016h-0.047l0,0h-0.031l0,0h-0.031
		h-0.031h-0.031h-0.031l0,0h-0.031l0,0h-0.094l0,0h-0.031l-0.031,0.031l0,0h-0.031h-0.016h-0.016H249.5h-0.031h-0.016h-0.016h-0.031
		h-0.031h-0.016h-0.047h-0.031l0,0h-0.047h-0.016h-0.031l0,0h-0.031h-0.031h-0.016h-0.016h-0.031h-0.031H249l0,0h-0.031h-0.016
		h-0.078l0,0h-0.031l0,0h-0.031h-0.031h-0.016h-0.016h-0.031h-0.031h-0.016h-0.016h-0.031h-0.016l-0.109,0.031l0,0h-0.047h-0.016
		h-0.031l0,0h-0.031h-0.016h-0.031h-0.016h-0.031l0,0h-0.031h-0.031h-0.156l0,0h-0.031l0,0h-0.063v0.031h-0.031h-0.016h-0.031l0,0
		h-0.219l0,0h-0.031h-0.016h-0.031h-0.016h-0.016h-0.031H247.5h-0.016l-0.141,0.031l0,0h-0.063l0,0h-0.031h-0.016h-0.031h-0.016
		h-0.031l0,0h-0.031h-0.016h-0.203l0,0h-0.047h-0.016h-0.031l0,0h-0.031L246.766,118H246.5h-0.031l0,0h-0.047l0,0h-0.047
		l-0.344,0.016c-6.031,0.391-11.906,1.266-17.641,2.578c-3.328,0.781-5.359,4.094-4.594,7.375c0.641,2.844,3.172,4.75,5.984,4.75
		l1.391-0.156c7.047-1.625,14.328-2.438,21.609-2.438H254.313z"/>
</g>
</svg>