<?xml version="1.0" encoding="utf-8"?>

<!DOCTYPE svg PUBLIC "-//W3C//DTD SVG 1.1//EN" "http://www.w3.org/Graphics/SVG/1.1/DTD/svg11.dtd">
<!-- Uploaded to: SVG Repo, www.svgrepo.com, Generator: SVG Repo Mixer Tools -->
<svg version="1.1" id="_x32_" xmlns="http://www.w3.org/2000/svg" xmlns:xlink="http://www.w3.org/1999/xlink" 
	 viewBox="0 0 512 512"  xml:space="preserve">
<style type="text/css">
	.st0{fill:#000000;}
</style>
<g>
	<path class="st0" d="M388.916,0H123.084C97.093,0,75.952,21.149,75.952,47.141V464.86c0,25.992,21.141,47.14,47.133,47.14h265.831
		c25.992,0,47.133-21.148,47.133-47.14V47.141C436.048,21.149,414.908,0,388.916,0z M415.1,464.86
		c0,14.466-11.727,26.193-26.185,26.193H123.084c-14.458,0-26.185-11.727-26.185-26.193V47.141
		c0-14.466,11.727-26.193,26.185-26.193h265.831c14.458,0,26.185,11.727,26.185,26.193V464.86z"/>
	<rect x="123.084" y="350.94" class="st0" width="37.976" height="37.968"/>
	<rect x="199.036" y="350.94" class="st0" width="37.976" height="37.968"/>
	<rect x="274.988" y="350.94" class="st0" width="37.975" height="37.968"/>
	<rect x="350.94" y="350.94" class="st0" width="37.976" height="37.968"/>
	<rect x="123.084" y="274.988" class="st0" width="37.976" height="37.976"/>
	<rect x="199.036" y="274.988" class="st0" width="37.976" height="37.976"/>
	<rect x="274.988" y="274.988" class="st0" width="37.975" height="37.976"/>
	<rect x="350.94" y="274.988" class="st0" width="37.976" height="37.976"/>
	<rect x="161.06" y="312.964" class="st0" width="37.976" height="37.976"/>
	<rect x="237.012" y="312.964" class="st0" width="37.976" height="37.976"/>
	<rect x="312.964" y="312.964" class="st0" width="37.976" height="37.976"/>
	<rect x="161.06" y="388.908" class="st0" width="37.976" height="37.976"/>
	<rect x="237.012" y="388.908" class="st0" width="37.976" height="37.976"/>
	<rect x="312.964" y="388.908" class="st0" width="37.976" height="37.976"/>
	<rect x="123.084" y="426.884" class="st0" width="37.976" height="37.976"/>
	<rect x="199.036" y="426.884" class="st0" width="37.976" height="37.976"/>
	<rect x="274.988" y="426.884" class="st0" width="37.975" height="37.976"/>
	<rect x="350.94" y="426.884" class="st0" width="37.976" height="37.976"/>
	<rect x="123.084" y="199.037" class="st0" width="37.976" height="37.976"/>
	<rect x="199.036" y="199.037" class="st0" width="37.976" height="37.976"/>
	<rect x="274.988" y="199.037" class="st0" width="37.975" height="37.976"/>
	<rect x="350.94" y="199.037" class="st0" width="37.976" height="37.976"/>
	<rect x="161.06" y="237.013" class="st0" width="37.976" height="37.975"/>
	<rect x="237.012" y="237.013" class="st0" width="37.976" height="37.975"/>
	<rect x="312.964" y="237.013" class="st0" width="37.976" height="37.975"/>
	<rect x="123.084" y="123.093" class="st0" width="37.976" height="37.968"/>
	<rect x="199.036" y="123.093" class="st0" width="37.976" height="37.968"/>
	<rect x="274.988" y="123.093" class="st0" width="37.975" height="37.968"/>
	<rect x="350.94" y="123.093" class="st0" width="37.976" height="37.968"/>
	<rect x="161.06" y="161.061" class="st0" width="37.976" height="37.976"/>
	<rect x="237.012" y="161.061" class="st0" width="37.976" height="37.976"/>
	<rect x="312.964" y="161.061" class="st0" width="37.976" height="37.976"/>
	<rect x="123.084" y="47.141" class="st0" width="37.976" height="37.976"/>
	<rect x="199.036" y="47.141" class="st0" width="37.976" height="37.976"/>
	<rect x="274.988" y="47.141" class="st0" width="37.975" height="37.976"/>
	<rect x="350.94" y="47.141" class="st0" width="37.976" height="37.976"/>
	<rect x="161.06" y="85.117" class="st0" width="37.976" height="37.976"/>
	<rect x="237.012" y="85.117" class="st0" width="37.976" height="37.976"/>
	<rect x="312.964" y="85.117" class="st0" width="37.976" height="37.976"/>
</g>
</svg>