<?xml version="1.0" encoding="utf-8"?>
<!-- Uploaded to: SVG Repo, www.svgrepo.com, Generator: SVG Repo Mixer Tools -->
<svg fill="#000000" width="800px" height="800px" viewBox="0 0 32 32" version="1.1" xmlns="http://www.w3.org/2000/svg">
<title>gears</title>
<path d="M12.759 16.089c0.241 0.248 0.575 0.404 0.946 0.411l0.001 0h0.001c0.003 0 0.007 0 0.011 0 0.298 0 0.568-0.12 0.765-0.315l1.703-1.703c0.194-0.196 0.315-0.466 0.315-0.765 0-0.004-0-0.008-0-0.012v0.001c-0.007-0.372-0.163-0.705-0.41-0.946l-0.564-0.564q0.075-0.169 0.141-0.341l0.797 0.004c0.023 0.002 0.049 0.002 0.076 0.002 0.649 0 1.178-0.51 1.209-1.151l0-0.003v-2.407c-0.031-0.644-0.561-1.154-1.209-1.154-0.027 0-0.053 0.001-0.079 0.003l0.004-0h-0.797c-0.044-0.116-0.092-0.23-0.142-0.343l0.567-0.561c0.251-0.223 0.408-0.547 0.408-0.908 0-0.314-0.119-0.6-0.315-0.816l0.001 0.001-1.702-1.702c-0.215-0.195-0.501-0.314-0.815-0.314-0.361 0-0.685 0.158-0.908 0.408l-0.001 0.001-0.564 0.564q-0.169-0.075-0.341-0.141l0.004-0.798c0.002-0.023 0.002-0.049 0.002-0.076 0-0.649-0.51-1.178-1.151-1.209l-0.003-0h-2.408c-0.644 0.031-1.154 0.561-1.154 1.209 0 0.027 0.001 0.053 0.003 0.079l-0-0.004v0.797c-0.116 0.044-0.229 0.091-0.343 0.142l-0.561-0.567c-0.223-0.252-0.547-0.411-0.908-0.411-0.314 0-0.601 0.12-0.816 0.317l0.001-0.001-1.702 1.702c-0.195 0.199-0.316 0.472-0.316 0.773 0 0.062 0.005 0.122 0.015 0.181l-0.001-0.006c0.049 0.306 0.191 0.572 0.396 0.775l0 0 0.564 0.563c-0.051 0.114-0.099 0.228-0.143 0.345l-0.797-0.004c-0.023-0.002-0.050-0.002-0.076-0.002-0.648 0-1.177 0.51-1.209 1.15l-0 0.003v2.408c0.031 0.644 0.561 1.154 1.209 1.154 0.027 0 0.053-0.001 0.079-0.003l-0.004 0h0.797c0.044 0.116 0.092 0.229 0.142 0.343l-0.566 0.561c-0.248 0.242-0.403 0.577-0.409 0.948v0.001c-0 0.004-0 0.008-0 0.012 0 0.297 0.12 0.566 0.315 0.761l1.702 1.703c0.196 0.194 0.466 0.314 0.765 0.314 0.004 0 0.008-0 0.011-0h0c0.372-0.007 0.705-0.163 0.946-0.41l0-0 0.564-0.563c0.114 0.051 0.228 0.098 0.344 0.143l-0.004 0.796c-0.002 0.023-0.002 0.049-0.002 0.076 0 0.649 0.51 1.178 1.151 1.209l0.003 0h2.407c0.644-0.031 1.154-0.561 1.154-1.209 0-0.027-0.001-0.053-0.003-0.079l0 0.004v-0.798c0.116-0.044 0.23-0.092 0.343-0.142zM10.356 16.25h-1.709l0.006-1.073c0-0.018-0.009-0.033-0.010-0.051-0.015-0.105-0.041-0.2-0.077-0.29l0.003 0.008c-0.059-0.126-0.153-0.227-0.27-0.293l-0.003-0.002c-0.043-0.029-0.093-0.055-0.145-0.075l-0.005-0.002c-0.014-0.005-0.024-0.016-0.039-0.020-0.425-0.122-0.795-0.279-1.14-0.475l0.026 0.013c-0.099-0.054-0.218-0.086-0.344-0.086-0 0-0.001 0-0.001 0h0c-0.018-0-0.032 0.004-0.051 0.004-0.185 0.006-0.351 0.080-0.477 0.197l0-0-0.025 0.010-0.725 0.799-1.246-1.246 0.763-0.755 0.011-0.027c0.115-0.123 0.189-0.287 0.197-0.467l0-0.002c0.001-0.021 0.005-0.037 0.005-0.058 0-0.001 0-0.002 0-0.003 0-0.126-0.032-0.245-0.088-0.348l0.002 0.004c-0.183-0.319-0.34-0.687-0.453-1.075l-0.009-0.036c-0.004-0.015-0.016-0.026-0.021-0.041-0.042-0.095-0.091-0.177-0.149-0.253l0.002 0.003c-0.033-0.034-0.069-0.065-0.108-0.092l-0.002-0.002c-0.034-0.028-0.071-0.053-0.111-0.075l-0.004-0.002c-0.038-0.018-0.084-0.033-0.131-0.044l-0.005-0.001c-0.042-0.014-0.091-0.024-0.142-0.029l-0.003-0c-0.017-0.001-0.031-0.010-0.048-0.010h-1.077v-1.709l1.077 0.005c0.152-0.004 0.292-0.054 0.407-0.136l-0.002 0.002c0.024-0.014 0.045-0.028 0.064-0.043l-0.002 0.001c0.109-0.088 0.191-0.206 0.235-0.34l0.001-0.005c0.003-0.010 0.014-0.015 0.017-0.025 0.122-0.424 0.279-0.793 0.475-1.137l-0.013 0.025c0.054-0.1 0.086-0.219 0.086-0.345 0-0 0-0 0-0v0c0.001-0.021-0.004-0.037-0.005-0.058-0.008-0.182-0.080-0.345-0.195-0.469l0 0-0.011-0.027-0.762-0.762 1.208-1.208 0.755 0.763c0.018 0.018 0.047 0.012 0.066 0.028 0.12 0.109 0.277 0.18 0.45 0.19l0.002 0 0.017 0.005c0.135-0 0.261-0.036 0.37-0.098l-0.004 0.002c0.318-0.183 0.686-0.34 1.074-0.452l0.036-0.009c0.015-0.004 0.026-0.016 0.041-0.021 0.054-0.021 0.1-0.045 0.143-0.073l-0.003 0.002c0.118-0.077 0.214-0.178 0.282-0.298l0.002-0.004c0.017-0.037 0.032-0.081 0.042-0.126l0.001-0.005c0.014-0.043 0.025-0.094 0.030-0.147l0-0.003c0.001-0.016 0.010-0.031 0.010-0.047v-1.077h1.71l-0.006 1.073c-0 0.017 0.009 0.032 0.010 0.049 0.005 0.055 0.015 0.106 0.031 0.155l-0.001-0.005c0.012 0.050 0.027 0.094 0.045 0.136l-0.002-0.005c0.024 0.045 0.050 0.084 0.080 0.12l-0.001-0.001c0.028 0.040 0.058 0.076 0.092 0.108l0 0c0.033 0.027 0.069 0.053 0.108 0.074l0.004 0.002c0.040 0.027 0.087 0.051 0.135 0.070l0.005 0.002c0.015 0.005 0.026 0.017 0.042 0.021 0.424 0.122 0.792 0.278 1.136 0.473l-0.026-0.013c0.101 0.060 0.222 0.096 0.352 0.096 0.187 0 0.357-0.074 0.482-0.195l-0 0c0.019-0.015 0.046-0.009 0.063-0.026l0.762-0.762 1.209 1.209-0.763 0.755-0.011 0.027c-0.115 0.123-0.188 0.286-0.196 0.465l-0 0.002c-0.001 0.021-0.006 0.038-0.005 0.059 0 0.001 0 0.002 0 0.002 0 0.126 0.032 0.244 0.088 0.348l-0.002-0.004c0.182 0.319 0.34 0.688 0.453 1.077l0.009 0.037c0.003 0.011 0.015 0.016 0.018 0.026 0.046 0.138 0.128 0.254 0.234 0.341l0.001 0.001c0.018 0.014 0.040 0.028 0.061 0.042l0.003 0.002c0.112 0.081 0.252 0.13 0.403 0.134l0.001 0h1.077v1.709l-1.077-0.005c-0.016 0-0.029 0.008-0.044 0.009-0.060 0.005-0.115 0.017-0.168 0.034l0.005-0.001c-0.045 0.011-0.084 0.024-0.121 0.041l0.005-0.002c-0.049 0.026-0.091 0.055-0.13 0.088l0.001-0.001c-0.037 0.026-0.069 0.054-0.099 0.085l-0 0c-0.028 0.034-0.055 0.072-0.077 0.113l-0.002 0.004c-0.026 0.039-0.049 0.084-0.068 0.131l-0.002 0.005c-0.005 0.015-0.017 0.026-0.022 0.042-0.121 0.423-0.278 0.791-0.473 1.135l0.013-0.025c-0.054 0.1-0.086 0.218-0.086 0.344 0 0.001 0 0.002 0 0.003v-0c-0.001 0.019 0.003 0.034 0.004 0.053 0.007 0.184 0.080 0.349 0.196 0.473l-0-0 0.011 0.026 0.799 0.724-1.245 1.246-0.757-0.763-0.025-0.010c-0.123-0.116-0.288-0.19-0.47-0.197l-0.001-0c-0.020-0.001-0.035-0.005-0.055-0.005-0.127 0-0.246 0.032-0.35 0.088l0.004-0.002c-0.319 0.182-0.688 0.34-1.077 0.453l-0.037 0.009c-0.017 0.005-0.028 0.017-0.045 0.023-0.095 0.043-0.177 0.092-0.252 0.15l0.003-0.002c-0.031 0.031-0.059 0.064-0.085 0.1l-0.002 0.002c-0.030 0.036-0.058 0.077-0.081 0.12l-0.002 0.004c-0.016 0.036-0.031 0.079-0.041 0.123l-0.001 0.005c-0.015 0.044-0.025 0.096-0.030 0.149l-0 0.003c-0.001 0.016-0.009 0.030-0.009 0.046zM12.395 9.502c0 0 0-0 0-0 0-1.598-1.295-2.893-2.893-2.893s-2.893 1.295-2.893 2.893c0 1.598 1.295 2.893 2.893 2.893 0 0 0 0 0 0v0c1.597-0.002 2.89-1.296 2.893-2.892v-0zM9.502 10.895c0 0-0 0-0 0-0.769 0-1.393-0.623-1.393-1.393s0.623-1.393 1.393-1.393c0.769 0 1.393 0.623 1.393 1.393 0 0 0 0 0 0v0c-0.001 0.769-0.624 1.391-1.392 1.393h-0zM29.428 19.578h-0.877c-0.054-0.143-0.113-0.284-0.176-0.423l0.623-0.616c0.259-0.229 0.421-0.562 0.421-0.933 0-0.321-0.121-0.613-0.32-0.834l0.001 0.001-1.809-1.809c-0.201-0.198-0.477-0.32-0.782-0.32-0.004 0-0.008 0-0.012 0h0.001c-0.382 0.008-0.725 0.167-0.972 0.421l-0.621 0.621q-0.208-0.094-0.42-0.174l0.004-0.878c0.002-0.024 0.003-0.053 0.003-0.081 0-0.663-0.521-1.205-1.175-1.238l-0.003-0h-2.557c-0.659 0.033-1.18 0.576-1.18 1.24 0 0.028 0.001 0.056 0.003 0.084l-0-0.004v0.877c-0.142 0.054-0.282 0.112-0.42 0.175l-0.619-0.623c-0.247-0.254-0.59-0.414-0.97-0.422l-0.001-0h-0.001c-0.004-0-0.008-0-0.012-0-0.304 0-0.579 0.122-0.78 0.32l-1.81 1.809c-0.198 0.219-0.319 0.51-0.319 0.83 0 0.371 0.163 0.704 0.421 0.931l0.001 0.001 0.621 0.621c-0.063 0.139-0.122 0.28-0.176 0.424l-0.877-0.004c-0.024-0.002-0.053-0.003-0.081-0.003-0.663 0-1.205 0.521-1.238 1.175l-0 0.003v2.559c0.033 0.658 0.575 1.178 1.238 1.178 0.029 0 0.057-0.001 0.085-0.003l-0.004 0h0.877c0.054 0.142 0.112 0.282 0.175 0.421l-0.622 0.618c-0.255 0.248-0.415 0.592-0.422 0.973l-0 0.001c-0 0.004-0 0.008-0 0.013 0 0.304 0.122 0.579 0.32 0.778l1.809 1.809c0.2 0.199 0.477 0.322 0.782 0.322 0.003 0 0.007 0 0.010-0h-0c0.383-0.008 0.727-0.17 0.974-0.425l0-0 0.618-0.619c0.14 0.064 0.281 0.122 0.425 0.176l-0.004 0.876c-0.002 0.024-0.003 0.053-0.003 0.081 0 0.663 0.521 1.204 1.175 1.237l0.003 0h2.557c0.659-0.033 1.18-0.575 1.18-1.239 0-0.028-0.001-0.056-0.003-0.083l0 0.004v-0.878c0.142-0.054 0.282-0.112 0.422-0.175l0.619 0.626c0.248 0.252 0.59 0.41 0.969 0.418l0.001 0h0.006c0.001 0 0.003 0 0.004 0 0.304 0 0.58-0.122 0.781-0.32l-0 0 1.805-1.807c0.2-0.2 0.324-0.477 0.324-0.783 0-0.001 0-0.003 0-0.004v0c-0.006-0.384-0.166-0.73-0.42-0.98l-0.622-0.622c0.063-0.138 0.12-0.277 0.173-0.419l0.878 0.004c0.024 0.002 0.053 0.003 0.081 0.003 0.663 0 1.204-0.521 1.237-1.175l0-0.003v-2.557c-0.033-0.658-0.574-1.179-1.237-1.179-0.029 0-0.057 0.001-0.085 0.003l0.004-0zM29.246 22.986l-1.192-0.006c-0.014 0-0.025 0.007-0.038 0.008-0.063 0.005-0.121 0.017-0.176 0.036l0.005-0.001c-0.135 0.045-0.25 0.118-0.344 0.212v0c-0.027 0.033-0.053 0.070-0.075 0.109l-0.002 0.004c-0.026 0.040-0.050 0.085-0.069 0.133l-0.002 0.005c-0.006 0.016-0.018 0.028-0.023 0.044-0.128 0.453-0.296 0.847-0.506 1.214l0.014-0.026c-0.054 0.099-0.086 0.218-0.086 0.344 0 0.002 0 0.004 0 0.006v-0c-0 0.015 0.003 0.027 0.004 0.043 0.005 0.186 0.079 0.354 0.198 0.48l-0-0 0.011 0.026 0.842 0.842-1.35 1.35-0.834-0.842c-0.008-0.008-0.020-0.004-0.028-0.012-0.123-0.115-0.286-0.188-0.467-0.196l-0.002-0c-0.020-0.001-0.036-0.005-0.056-0.005-0.002 0-0.003-0-0.005-0-0.125 0-0.243 0.032-0.345 0.088l0.004-0.002c-0.341 0.194-0.737 0.363-1.152 0.484l-0.040 0.010c-0.017 0.005-0.028 0.017-0.044 0.023-0.050 0.020-0.093 0.042-0.134 0.069l0.003-0.002c-0.201 0.128-0.338 0.34-0.363 0.585l-0 0.003c-0.001 0.015-0.009 0.028-0.009 0.044v1.191h-1.91l0.006-1.188c0-0.016-0.008-0.030-0.009-0.046-0.005-0.055-0.015-0.105-0.031-0.153l0.001 0.005c-0.040-0.187-0.157-0.341-0.315-0.43l-0.003-0.002c-0.044-0.030-0.093-0.056-0.146-0.076l-0.005-0.002c-0.014-0.005-0.024-0.016-0.039-0.020-0.454-0.129-0.85-0.298-1.218-0.508l0.027 0.014c-0.099-0.053-0.216-0.084-0.341-0.084-0.001 0-0.001 0-0.002 0h0c-0.024 0.001-0.048 0.003-0.071 0.006l0.003-0c-0.178 0.009-0.338 0.080-0.46 0.192l0.001-0.001c-0.009 0.008-0.022 0.004-0.031 0.013l-0.841 0.842-1.35-1.35 0.844-0.836c0.008-0.008 0.005-0.021 0.012-0.029 0.114-0.123 0.187-0.285 0.195-0.464l0-0.002c0.001-0.021 0.006-0.038 0.005-0.059 0-0.001 0-0.002 0-0.002 0-0.126-0.032-0.244-0.088-0.348l0.002 0.004c-0.195-0.341-0.363-0.735-0.484-1.15l-0.010-0.039c-0.004-0.016-0.016-0.026-0.021-0.041-0.021-0.053-0.045-0.099-0.073-0.142l0.002 0.003c-0.023-0.042-0.047-0.078-0.075-0.111l0.001 0.001c-0.1-0.114-0.236-0.195-0.39-0.224l-0.004-0.001c-0.027-0.008-0.060-0.015-0.094-0.019l-0.004-0c-0.022-0.002-0.041-0.013-0.063-0.013h-1.191v-1.91l1.191 0.006c0.19-0.006 0.361-0.083 0.487-0.205l-0 0c0.052-0.052 0.095-0.114 0.126-0.182l0.002-0.004c0.033-0.055 0.089-0.091 0.107-0.156 0.131-0.455 0.299-0.85 0.508-1.219l-0.014 0.027c0.055-0.1 0.087-0.219 0.087-0.345v-0c0.001-0.019-0.003-0.034-0.004-0.053-0.006-0.185-0.080-0.351-0.198-0.476l0 0-0.009-0.023-0.842-0.844 1.35-1.35 0.836 0.844c0.018 0.018 0.045 0.011 0.064 0.027 0.123 0.115 0.287 0.188 0.467 0.196l0.002 0c0 0 0 0 0.001 0 0.135 0 0.261-0.036 0.37-0.099l-0.004 0.002c0.341-0.196 0.736-0.364 1.151-0.484l0.038-0.010c0.015-0.004 0.026-0.016 0.041-0.021 0.053-0.020 0.098-0.044 0.14-0.072l-0.003 0.002c0.166-0.089 0.286-0.243 0.328-0.427l0.001-0.004c0.015-0.045 0.026-0.097 0.031-0.151l0-0.003c0.001-0.016 0.009-0.029 0.009-0.045v-1.191h1.91l-0.006 1.188c-0 0.016 0.008 0.028 0.009 0.044 0.006 0.065 0.019 0.125 0.039 0.182l-0.002-0.005c0.008 0.031 0.017 0.056 0.027 0.081l-0.002-0.004c0.086 0.206 0.258 0.363 0.47 0.426l0.005 0.001c0.454 0.13 0.848 0.298 1.217 0.507l-0.027-0.014c0.105 0.060 0.231 0.096 0.366 0.096 0 0 0.001 0 0.001 0h-0c0.181-0.008 0.344-0.080 0.468-0.195l-0 0c0.019-0.015 0.046-0.009 0.064-0.026l0.842-0.842 1.35 1.35-0.844 0.835-0.011 0.026c-0.116 0.123-0.189 0.287-0.197 0.468l-0 0.002c-0.001 0.020-0.005 0.036-0.005 0.056 0 0.001 0 0.003 0 0.004 0 0.126 0.032 0.245 0.088 0.348l-0.002-0.004c0.196 0.342 0.365 0.737 0.485 1.153l0.009 0.038c0.003 0.012 0.016 0.017 0.019 0.028 0.046 0.137 0.127 0.253 0.233 0.339l0.001 0.001c0.019 0.014 0.040 0.029 0.062 0.042l0.003 0.002c0.113 0.081 0.252 0.131 0.403 0.135l0.001 0h1.191zM22.031 19.004c-0 0-0.001 0-0.001 0-1.671 0-3.026 1.355-3.026 3.026s1.355 3.026 3.026 3.026c1.671 0 3.026-1.354 3.026-3.025v-0c-0.002-1.671-1.355-3.025-3.025-3.027h-0zM22.031 23.557c-0 0-0.001 0-0.001 0-0.843 0-1.526-0.683-1.526-1.526s0.683-1.526 1.526-1.526c0.843 0 1.526 0.683 1.526 1.526 0 0 0 0.001 0 0.001v-0c-0.002 0.842-0.684 1.524-1.525 1.525h-0z"></path>
</svg>